# Blender 5.1.1
# www.blender.org
mtllib MidWall.mtl
o SM_NewYorkE01BuildingIND003Aa.001
v -184.751740 12.909973 -208.073074
v -184.751740 12.909977 -186.026932
v -184.751740 4.079977 -186.026947
v -184.751740 4.079973 -208.073059
v -185.460510 12.909802 -185.595764
v -184.751740 4.079977 -186.026947
v -184.751740 12.909977 -186.026932
v -185.460495 4.079850 -185.595779
v -185.460495 4.079850 -185.595779
v -184.751740 4.079973 -208.073059
v -184.751740 4.079977 -186.026947
v -185.460495 4.079846 -208.504227
v -185.460510 12.909799 -208.504242
v -185.460510 12.909802 -185.595764
v -184.751740 12.909973 -208.073074
v -184.751740 12.909977 -186.026932
v -184.751740 12.909973 -208.073074
v -184.751740 4.079973 -208.073059
v -185.460510 12.909799 -208.504242
v -185.460495 4.079846 -208.504227
v -185.259384 4.380668 -185.713196
v -184.779510 4.380668 -185.954971
v -185.259384 4.079850 -185.713211
v -184.779510 4.079850 -185.954987
v -184.779510 4.380664 -208.145035
v -185.259384 4.079846 -208.386795
v -184.779510 4.079846 -208.145020
v -185.259384 4.380664 -208.386810
v -185.259384 4.380664 -208.386810
v -185.259384 4.380668 -185.713196
v -185.259384 4.079850 -185.713211
v -185.259384 4.079846 -208.386795
v -184.779510 4.380664 -208.145035
v -184.779510 4.079850 -185.954987
v -184.779510 4.380668 -185.954971
v -184.779510 4.079846 -208.145020
v -185.259384 4.380668 -185.713196
v -184.779510 4.380664 -208.145035
v -184.779510 4.380668 -185.954971
v -185.259384 4.380664 -208.386810
v -185.259384 4.079846 -208.386795
v -184.779510 4.079850 -185.954987
v -184.779510 4.079846 -208.145020
v -185.259384 4.079850 -185.713211
v -185.460510 12.909802 -185.595764
v -185.460510 12.909799 -208.504242
v -185.460495 4.079846 -208.504227
v -185.460495 4.079850 -185.595779
v -184.671066 4.395253 -185.929688
v -184.690369 4.408131 -185.910370
v -184.683670 4.337815 -185.917068
v -184.602127 4.109156 -185.998611
v -184.626465 4.127682 -185.974289
v -184.602875 4.103593 -185.997864
v -184.635147 4.129097 -185.965591
v -184.636429 4.138404 -185.964310
v -184.637177 4.139811 -185.963562
v -184.601608 4.105160 -185.999146
v -184.601608 4.108203 -185.999146
v -184.602875 4.103593 -185.997864
v -184.601608 4.108203 -185.999146
v -184.602127 4.109156 -185.998611
v -184.602875 4.103593 -185.997864
v -184.673080 4.173247 -185.927673
v -184.704651 4.176605 -185.896088
v -184.704315 4.103593 -185.896423
v -184.690369 4.408128 -208.189636
v -184.671066 4.395249 -208.170319
v -184.683670 4.337811 -208.182938
v -184.626465 4.127679 -208.125717
v -184.602127 4.109153 -208.101395
v -184.602875 4.103590 -208.102142
v -184.602127 4.109153 -208.101395
v -184.601608 4.108200 -208.100861
v -184.602875 4.103590 -208.102142
v -184.601608 4.108200 -208.100861
v -184.601608 4.105157 -208.100861
v -184.602875 4.103590 -208.102142
v -184.704315 4.103590 -208.203583
v -184.704651 4.176601 -208.203918
v -184.673080 4.173243 -208.172333
v -184.637177 4.139807 -208.136444
v -184.636429 4.138401 -208.135696
v -184.635147 4.129093 -208.134415
v -184.793045 4.408134 -197.050003
v -184.690369 4.408131 -185.910370
v -184.690369 4.408134 -197.050003
v -184.793060 4.408131 -185.807693
v -184.672241 4.341994 -185.928497
v -184.678421 4.339735 -197.050003
v -184.672241 4.341992 -197.050003
v -184.683533 4.337868 -185.917221
v -184.683670 4.337815 -185.917068
v -184.684265 4.336008 -197.050003
v -184.683670 4.337813 -197.050003
v -184.684265 4.336009 -185.916473
v -184.671066 4.345604 -185.929688
v -184.672241 4.341992 -197.050003
v -184.671066 4.345603 -197.050003
v -184.672241 4.341994 -185.928497
v -184.671066 4.395253 -185.929688
v -184.671066 4.345603 -197.050003
v -184.671066 4.395251 -197.050003
v -184.671066 4.345604 -185.929688
v -184.704315 4.103593 -185.896423
v -184.704315 4.103591 -197.050003
v -184.602875 4.103593 -185.997864
v -184.602875 4.103591 -197.050003
v -184.704651 4.176602 -197.050003
v -184.704315 4.103593 -185.896423
v -184.704651 4.176605 -185.896088
v -184.704315 4.103591 -197.050003
v -184.690369 4.408134 -197.050003
v -184.671066 4.395253 -185.929688
v -184.671066 4.395251 -197.050003
v -184.690369 4.408131 -185.910370
v -184.683670 4.337815 -185.917068
v -184.683670 4.337813 -197.050003
v -184.683533 4.337868 -185.917221
v -184.678421 4.339735 -197.050003
v -184.690369 4.408128 -208.189636
v -184.793045 4.408134 -197.050003
v -184.690369 4.408134 -197.050003
v -184.793060 4.408128 -208.292313
v -184.678421 4.339735 -197.050003
v -184.672241 4.341990 -208.171509
v -184.672241 4.341992 -197.050003
v -184.683533 4.337864 -208.182785
v -184.684265 4.336008 -197.050003
v -184.683670 4.337811 -208.182938
v -184.683670 4.337813 -197.050003
v -184.684265 4.336005 -208.183533
v -184.672241 4.341992 -197.050003
v -184.671066 4.345601 -208.170319
v -184.671066 4.345603 -197.050003
v -184.672241 4.341990 -208.171509
v -184.671066 4.395249 -208.170319
v -184.671066 4.395251 -197.050003
v -184.671066 4.345603 -197.050003
v -184.671066 4.345601 -208.170319
v -184.704315 4.103591 -197.050003
v -184.602875 4.103590 -208.102142
v -184.602875 4.103591 -197.050003
v -184.704315 4.103590 -208.203583
v -184.704651 4.176602 -197.050003
v -184.704651 4.176601 -208.203918
v -184.704315 4.103590 -208.203583
v -184.704315 4.103591 -197.050003
v -184.690369 4.408134 -197.050003
v -184.671066 4.395249 -208.170319
v -184.690369 4.408128 -208.189636
v -184.671066 4.395251 -197.050003
v -184.683670 4.337813 -197.050003
v -184.683533 4.337864 -208.182785
v -184.678421 4.339735 -197.050003
v -184.683670 4.337811 -208.182938
v -184.626465 4.127679 -208.125717
v -184.602875 4.103590 -208.102142
v -184.635147 4.129093 -208.134415
v -184.628006 4.128266 -208.127274
v -184.690369 4.408131 -185.910370
v -184.793060 4.408131 -185.807693
v -184.684265 4.336009 -185.916473
v -184.683670 4.337815 -185.917068
v -184.793060 4.408131 -185.807693
v -184.793060 4.103593 -185.807693
v -184.684265 4.336009 -185.916473
v -184.684265 4.103593 -185.916473
v -184.626465 4.127682 -185.974289
v -184.628006 4.128270 -185.972733
v -184.635147 4.129097 -185.965591
v -184.602875 4.103593 -185.997864
v -184.684265 4.336005 -208.183533
v -184.684265 4.103590 -208.183533
v -184.793060 4.103589 -208.292313
v -184.793060 4.408128 -208.292313
v -184.793060 4.408128 -208.292313
v -184.690369 4.408128 -208.189636
v -184.684265 4.336005 -208.183533
v -184.683670 4.337811 -208.182938
v -184.602875 4.103591 -197.050003
v -184.602875 4.103590 -208.102142
v -184.601608 4.105157 -208.100861
v -184.601608 4.105158 -197.050003
v -184.601608 4.108200 -208.100861
v -184.601608 4.108202 -197.050003
v -184.602127 4.109154 -197.050003
v -184.602127 4.109153 -208.101395
v -184.626465 4.127680 -197.050003
v -184.626465 4.127679 -208.125717
v -184.628021 4.128268 -197.050003
v -184.628006 4.128266 -208.127274
v -184.635147 4.129095 -197.050003
v -184.635147 4.129093 -208.134415
v -184.671066 4.345601 -208.170319
v -184.672241 4.341990 -208.171509
v -184.683533 4.337864 -208.182785
v -184.671066 4.395249 -208.170319
v -184.683670 4.337811 -208.182938
v -184.636429 4.138404 -185.964310
v -184.637177 4.139809 -197.050003
v -184.637177 4.139811 -185.963562
v -184.636475 4.138402 -197.050003
v -184.635147 4.129097 -185.965591
v -184.635147 4.129095 -197.050003
v -184.602875 4.103591 -197.050003
v -184.601608 4.105160 -185.999146
v -184.602875 4.103593 -185.997864
v -184.601608 4.105158 -197.050003
v -184.601608 4.108203 -185.999146
v -184.601608 4.108202 -197.050003
v -184.602127 4.109154 -197.050003
v -184.602127 4.109156 -185.998611
v -184.626465 4.127680 -197.050003
v -184.626465 4.127682 -185.974289
v -184.628021 4.128268 -197.050003
v -184.628006 4.128270 -185.972733
v -184.635147 4.129095 -197.050003
v -184.635147 4.129097 -185.965591
v -184.670090 4.171779 -197.050003
v -184.637177 4.139811 -185.963562
v -184.637177 4.139809 -197.050003
v -184.670074 4.171781 -185.930664
v -184.673080 4.173245 -197.050003
v -184.673080 4.173247 -185.927673
v -184.704651 4.176602 -197.050003
v -184.704651 4.176605 -185.896088
v -184.683670 4.337815 -185.917068
v -184.683533 4.337868 -185.917221
v -184.671066 4.395253 -185.929688
v -184.671066 4.345604 -185.929688
v -184.672241 4.341994 -185.928497
v -184.637177 4.139809 -197.050003
v -184.636429 4.138401 -208.135696
v -184.637177 4.139807 -208.136444
v -184.636475 4.138402 -197.050003
v -184.635147 4.129093 -208.134415
v -184.635147 4.129095 -197.050003
v -184.637177 4.139807 -208.136444
v -184.670090 4.171779 -197.050003
v -184.637177 4.139809 -197.050003
v -184.670074 4.171777 -208.169342
v -184.673080 4.173245 -197.050003
v -184.673080 4.173243 -208.172333
v -184.704651 4.176602 -197.050003
v -184.704651 4.176601 -208.203918
v -184.704315 4.103593 -185.896423
v -184.602875 4.103593 -185.997864
v -184.635147 4.129097 -185.965591
v -184.670074 4.171781 -185.930664
v -184.637177 4.139811 -185.963562
v -184.673080 4.173247 -185.927673
v -184.602875 4.103590 -208.102142
v -184.704315 4.103590 -208.203583
v -184.635147 4.129093 -208.134415
v -184.670074 4.171777 -208.169342
v -184.673080 4.173243 -208.172333
v -184.637177 4.139807 -208.136444
v -184.684265 4.103593 -185.916473
v -184.793045 4.103591 -197.050003
v -184.684265 4.103591 -197.050003
v -184.793060 4.103593 -185.807693
v -184.684265 4.336009 -185.916473
v -184.684265 4.103591 -197.050003
v -184.684265 4.336008 -197.050003
v -184.684265 4.103593 -185.916473
v -184.793060 4.408131 -185.807693
v -184.793045 4.408134 -197.050003
v -184.793045 4.103591 -197.050003
v -184.793060 4.103593 -185.807693
v -184.793045 4.103591 -197.050003
v -184.684265 4.103590 -208.183533
v -184.684265 4.103591 -197.050003
v -184.793060 4.103589 -208.292313
v -184.684265 4.336005 -208.183533
v -184.684265 4.336008 -197.050003
v -184.684265 4.103591 -197.050003
v -184.684265 4.103590 -208.183533
v -184.793060 4.103589 -208.292313
v -184.793045 4.103591 -197.050003
v -184.793060 4.408128 -208.292313
v -184.793045 4.408134 -197.050003
v -184.676514 12.909975 -185.736847
v -184.676514 4.079977 -185.736847
v -184.676514 12.909975 -186.027710
v -184.676514 4.079977 -186.027710
v -184.676514 12.909975 -186.027710
v -185.333420 12.909975 -186.027710
v -185.333420 12.909975 -185.736847
v -184.676514 12.909975 -185.736847
v -184.676514 12.909975 -186.027710
v -185.333420 4.079978 -186.027710
v -185.333420 12.909975 -186.027710
v -184.676514 4.079977 -186.027710
v -185.333420 12.909975 -186.027710
v -185.333420 4.079978 -185.736847
v -185.333420 12.909975 -185.736847
v -185.333420 4.079978 -186.027710
v -185.333420 4.079978 -185.736847
v -184.676514 4.079977 -186.027710
v -184.676514 4.079977 -185.736847
v -185.333420 4.079978 -186.027710
v -184.676514 12.909975 -185.736847
v -185.333420 4.079978 -185.736847
v -184.676514 4.079977 -185.736847
v -185.333420 12.909975 -185.736847
v -184.676529 12.909974 -208.363159
v -184.676529 4.079976 -208.072296
v -184.676529 4.079976 -208.363159
v -184.676529 12.909974 -208.072296
v -185.333435 12.909974 -208.363159
v -184.676529 12.909974 -208.072296
v -184.676529 12.909974 -208.363159
v -185.333435 12.909974 -208.072296
v -184.676529 12.909974 -208.072296
v -185.333435 4.079977 -208.072296
v -184.676529 4.079976 -208.072296
v -185.333435 12.909974 -208.072296
v -185.333435 12.909974 -208.363159
v -185.333435 4.079977 -208.072296
v -185.333435 12.909974 -208.072296
v -185.333435 4.079977 -208.363159
v -184.676529 4.079976 -208.072296
v -185.333435 4.079977 -208.363159
v -184.676529 4.079976 -208.363159
v -185.333435 4.079977 -208.072296
v -184.676529 12.909974 -208.363159
v -185.333435 4.079977 -208.363159
v -185.333435 12.909974 -208.363159
v -184.676529 4.079976 -208.363159
vn 1.0000 0.0039 0.0039
vn 0.5191 0.0039 0.8547
vn 0.0040 -1.0000 0.0040
vn 0.0039 1.0000 0.0039
vn 0.5225 0.0039 -0.8526
vn 0.5226 0.0040 -0.8526
vn 0.5318 -0.8469 -0.0040
vn -0.5261 -0.8504 -0.0040
vn 0.5282 0.8491 -0.0040
vn -0.5226 0.8526 -0.0039
vn -0.5261 -0.8504 0.0119
vn 0.5282 0.8490 0.0118
vn -0.5225 0.8525 0.0118
vn 0.5318 -0.8468 0.0118
vn 0.5317 -0.8468 0.0118
vn 0.5318 -0.8469 -0.0001
vn 0.5283 0.8491 -0.0039
vn 0.5282 0.8491 -0.0001
vn -0.5261 -0.8504 0.0001
vn -0.5226 0.8526 0.0001
vn -0.5261 -0.8504 -0.0039
vn -0.5261 -0.8504 0.0118
vn 0.5282 0.8490 0.0117
vn -0.5225 0.8526 -0.0039
vn -0.5226 0.8525 0.0118
vn -1.0000 0.0040 0.0040
vn 0.7071 0.0039 0.7071
vn 0.7071 0.0038 0.7071
vn 0.7110 0.0039 -0.7032
vn 0.1061 0.9943 0.0039
vn 0.5700 -0.8216 0.0039
vn 0.3516 -0.9362 0.0040
vn 0.6498 -0.7601 0.0040
vn 1.0000 0.0039 -0.0000
vn 0.6498 -0.7601 0.0039
vn 0.9998 -0.0196 0.0039
vn 0.9998 -0.0197 0.0039
vn 0.9555 0.2949 0.0039
vn 0.0197 -0.9998 0.0039
vn -1.0000 -0.0040 0.0040
vn -1.0000 -0.0039 0.0040
vn -1.0000 -0.0040 0.0039
vn 0.1061 0.9943 0.0040
vn 0.6498 -0.7601 -0.0000
vn 0.3515 -0.9362 0.0039
vn 0.5700 -0.8216 0.0040
vn 0.9555 0.2949 0.0040
vn 0.0197 -0.9998 0.0040
vn 0.9646 -0.2638 0.0039
vn 0.9906 0.1371 0.0039
vn 0.6156 0.7880 0.0039
vn 0.5930 0.8052 0.0039
vn 0.1612 0.9869 0.0039
vn 0.1216 0.9926 0.0039
vn 0.7110 0.0039 -0.7031
vn 0.9815 0.1916 0.0039
vn 0.7032 0.7110 0.0039
vn 0.7032 0.7110 0.0040
vn 0.9895 0.1447 0.0039
vn 0.6833 0.7302 0.0039
vn 0.1447 0.9895 0.0039
vn 0.0040 0.0040 -1.0000
vn 0.0039 0.0039 1.0000
vt -2.888672 -0.668945
vt 3.269531 -0.668945
vt 3.269531 1.796875
vt -2.888672 1.796875
vt 0.519531 0.000000
vt 0.483643 0.385254
vt 0.483643 0.000000
vt 0.519531 0.385254
vt 0.447266 0.000000
vt 0.416504 0.981171
vt 0.416504 0.019043
vt 0.447266 0.999998
vt 0.416504 0.000000
vt 0.416504 1.000000
vt 0.385498 0.019043
vt 0.385498 0.981171
vt 0.447266 0.385254
vt 3.269531 1.712891
vt -2.888672 1.712891
vt -2.976562 1.712891
vt 3.355469 1.712891
vt 3.355469 1.796875
vt -2.976562 1.796875
vt -2.908203 1.712891
vt 3.289062 1.796875
vt 3.289062 1.712891
vt -2.908203 1.796875
vt 3.355469 2.352539
vt -2.908203 2.352539
vt 3.289062 2.352539
vt -2.976562 2.352539
vt -2.976562 4.818359
vt 3.289062 4.818359
vt -2.908203 4.818359
vt 3.355469 4.818359
vt 0.000008 1.000000
vt 0.000008 0.000000
vt 0.385498 0.000000
vt 0.385498 0.999999
vt 0.358154 13.570312
vt 0.594238 -10.945312
vt 0.426758 -11.195312
vt 1.509766 0.225586
vt 1.510742 0.232422
vt 1.509766 0.206055
vt 1.509766 0.245605
vt 1.511719 0.252441
vt 1.511719 0.258789
vt 1.509766 0.212402
vt 1.510742 0.219238
vt 1.514648 0.271973
vt 3.933594 0.169922
vt 4.324219 0.185547
vt 0.706543 1.459473
vt 0.594238 1.457764
vt 0.706543 -11.062500
vt 0.457520 -11.156250
vt 0.450684 1.223267
vt 0.457520 1.223145
vt 0.445312 -11.171875
vt 0.424805 1.218506
vt 0.426758 1.214600
vt 0.424805 -11.187500
vt 0.412354 13.578125
vt 0.416504 1.198608
vt 0.412354 1.201416
vt 0.416504 13.578125
vt 0.412354 1.196167
vt 0.358154 1.196167
vt 0.412354 13.570312
vt 2.064453 0.185547
vt 4.304688 0.206055
vt 2.064453 0.206055
vt 1.868164 0.169922
vt 3.933594 0.185547
vt 1.868164 0.185547
vt 0.343994 1.196777
vt 0.358154 1.198364
vt 0.343994 13.593750
vt 0.445068 -11.195312
vt 0.445068 1.214600
vt 0.445312 -11.195312
vt 0.450684 1.213257
vt 1.511719 0.238770
vt -1.163086 0.294922
vt 2.078125 0.333496
vt 4.761719 0.746582
vt 0.662598 0.206055
vt 1.508789 0.212402
vt 0.662598 0.212402
vt 0.663086 0.219238
vt 0.662598 0.225586
vt 0.662109 0.232422
vt 0.662598 0.238770
vt 0.662598 0.245605
vt 1.511719 0.245605
vt 0.663574 0.258789
vt 1.514648 0.258789
vt 0.662598 0.251953
vt 0.661133 0.245605
vt 0.662598 0.265137
vt 0.662598 0.258789
vt 1.514648 0.265137
vt 0.662598 0.271973
vt 0.662598 0.278320
vt 1.517578 0.278320
vt 2.064453 0.347656
vt 0.575684 0.333496
vt 0.575684 0.347656
vt 4.761719 0.631104
vt -1.171875 0.746582
vt -1.171875 0.631104
vt 0.338135 0.294922
vt 0.338135 0.256836
vt -1.163086 0.256836
vt 0.598633 0.706787
vt 0.008354 0.706787
vt 0.598633 0.687500
vt 0.008354 0.687500
vt 0.647461 0.467285
vt 0.647461 0.390137
vt 0.681641 0.390137
vt 0.681641 0.467285
vt 1.033203 0.655762
vt 1.782227 0.711670
vt 1.033203 0.711670
vt 1.782227 0.655762
vt 0.598633 0.677490
vt 0.008354 0.657959
vt 0.598633 0.657959
vt 0.008354 0.677490
vt 0.647461 0.476074
vt 0.681641 0.553223
vt 0.647461 0.553223
vt 0.681641 0.476074
vt 1.033203 0.649414
vt 1.782227 0.593750
vt 1.782227 0.649414
vt 1.033203 0.593750
s 1
usemtl MI_NewYorkE01Wall004A_01
f 1/1/1 2/2/1 3/3/1
f 1/1/1 3/3/1 4/4/1
f 5/5/2 6/6/2 7/7/2
f 6/6/2 5/5/2 8/8/2
f 9/9/3 10/10/3 11/11/3
f 9/9/3 12/12/3 10/10/3
f 13/13/4 14/14/4 15/15/4
f 15/15/4 14/14/4 16/16/4
f 17/17/5 18/9/5 19/6/6
f 19/6/6 18/9/5 20/7/5
f 21/18/7 22/18/8 23/3/9
f 22/18/8 24/3/10 23/3/9
f 25/19/11 26/4/12 27/4/13
f 26/4/12 25/19/11 28/19/14
f 29/20/15 30/21/16 31/22/17
f 29/20/15 31/22/17 32/23/18
f 33/24/19 34/25/20 35/26/21
f 34/25/20 33/24/19 36/27/13
f 37/28/7 38/29/22 39/30/21
f 37/28/7 40/31/14 38/29/22
f 41/32/23 42/33/24 43/34/25
f 41/32/23 44/35/17 42/33/24
f 45/36/26 46/37/26 47/38/26
f 45/36/26 47/38/26 48/39/26
usemtl MI_NewYorkE01Wall005A_01
f 49/40/27 50/41/27 51/42/27
f 52/43/28 53/44/28 54/45/28
f 55/46/27 56/47/27 57/48/27
f 58/49/27 59/50/27 60/45/27
f 61/50/27 62/43/27 63/45/27
f 64/51/27 65/52/27 66/53/27
f 67/41/29 68/40/29 69/42/29
f 70/44/29 71/43/29 72/45/29
f 73/43/29 74/50/29 75/45/29
f 76/50/29 77/49/29 78/45/29
f 79/53/29 80/52/29 81/51/29
f 82/48/29 83/47/29 84/46/29
f 85/54/4 86/41/30 87/55/30
f 86/41/30 85/54/4 88/56/4
f 89/57/31 90/58/32 91/59/31
f 90/58/32 89/57/31 92/60/32
f 93/42/33 94/61/34 95/62/35
f 94/61/34 93/42/33 96/63/1
f 97/64/36 98/65/31 99/66/37
f 98/65/31 97/64/36 100/67/31
f 101/40/38 102/68/36 103/69/38
f 102/68/36 101/40/38 104/70/36
f 105/53/3 106/71/3 107/72/39
f 107/72/39 106/71/3 108/73/39
f 109/74/40 110/75/41 111/52/42
f 110/75/41 109/74/40 112/76/40
f 113/77/43 114/40/38 115/78/38
f 114/40/38 113/77/43 116/79/30
f 117/80/35 118/81/44 119/82/45
f 119/82/45 118/81/44 120/83/32
f 121/41/30 122/54/4 123/55/30
f 122/54/4 121/41/30 124/56/4
f 125/58/32 126/57/31 127/59/31
f 126/57/31 125/58/32 128/60/32
f 129/61/1 130/42/35 131/62/44
f 130/42/35 129/61/1 132/63/1
f 133/65/46 134/64/37 135/66/37
f 134/64/37 133/65/46 136/67/31
f 137/40/38 138/69/38 139/68/36
f 137/40/38 139/68/36 140/70/36
f 141/71/3 142/72/39 143/73/39
f 141/71/3 144/53/3 142/72/39
f 145/74/40 146/52/42 147/75/41
f 145/74/40 147/75/41 148/76/40
f 149/77/30 150/40/38 151/79/30
f 150/40/38 149/77/30 152/78/47
f 153/81/35 154/82/32 155/83/32
f 153/81/35 156/80/35 154/82/32
f 157/44/29 158/45/29 159/46/29
f 160/84/29 157/44/29 159/46/29
f 161/41/27 162/85/27 163/63/27
f 161/41/27 163/63/27 164/42/27
f 165/85/27 166/86/27 167/63/27
f 166/86/27 168/87/27 167/63/27
f 169/44/27 170/84/27 171/46/27
f 172/45/27 169/44/27 171/46/27
f 173/63/29 174/87/29 175/86/29
f 175/86/29 176/85/29 173/63/29
f 177/85/29 178/41/29 179/63/29
f 179/63/29 178/41/29 180/42/29
f 181/88/39 182/45/48 183/89/49
f 183/89/49 184/90/49 181/88/39
f 185/50/50 184/90/49 183/89/49
f 185/50/50 186/91/50 184/90/49
f 185/50/50 187/92/51 186/91/50
f 187/92/51 185/50/50 188/43/51
f 188/43/51 189/93/52 187/92/51
f 189/93/52 188/43/51 190/44/52
f 190/44/52 191/94/53 189/93/52
f 192/84/53 191/94/53 190/44/52
f 192/84/53 193/95/54 191/94/53
f 193/95/54 192/84/53 194/96/54
f 195/70/29 196/67/29 197/60/29
f 198/40/29 195/70/29 197/60/29
f 199/42/55 198/40/29 197/60/29
f 200/47/56 201/97/57 202/98/58
f 201/97/57 200/47/56 203/99/56
f 204/46/59 203/99/56 200/47/56
f 203/99/56 204/46/59 205/100/59
f 206/88/48 207/89/49 208/45/48
f 207/89/49 206/88/48 209/90/49
f 209/90/49 210/50/50 207/89/49
f 210/50/50 209/90/49 211/91/50
f 212/92/51 210/50/50 211/91/50
f 210/50/50 212/92/51 213/43/51
f 214/93/52 213/43/51 212/92/51
f 213/43/51 214/93/52 215/44/52
f 215/44/52 214/93/52 216/94/53
f 216/94/53 217/84/53 215/44/52
f 218/95/54 217/84/53 216/94/53
f 217/84/53 218/95/54 219/96/54
f 220/101/60 221/48/57 222/102/57
f 221/48/57 220/101/60 223/103/60
f 224/104/61 223/103/60 220/101/60
f 223/103/60 224/104/61 225/51/61
f 226/105/30 225/51/61 224/104/61
f 225/51/61 226/105/30 227/106/30
f 228/42/27 229/60/27 230/40/27
f 231/70/27 230/40/27 229/60/27
f 229/60/27 232/67/27 231/70/27
f 233/97/57 234/47/56 235/98/57
f 234/47/56 233/97/57 236/99/56
f 236/99/56 237/46/59 234/47/56
f 237/46/59 236/99/56 238/100/59
f 239/48/57 240/101/60 241/102/57
f 240/101/60 239/48/57 242/103/60
f 242/103/60 243/104/61 240/101/60
f 243/104/61 242/103/60 244/51/61
f 244/51/61 245/105/30 243/104/61
f 245/105/30 244/51/61 246/106/30
f 247/53/27 248/45/27 249/46/27
f 249/46/27 250/103/27 247/53/27
f 251/48/27 250/103/27 249/46/27
f 250/103/27 252/51/27 247/53/27
f 253/45/29 254/53/29 255/46/29
f 254/53/29 256/103/29 255/46/29
f 257/51/29 256/103/29 254/53/29
f 256/103/29 258/48/29 255/46/29
usemtl MI_Copper004
f 259/107/3 260/108/3 261/109/3
f 260/108/3 259/107/3 262/86/3
f 263/110/1 264/111/1 265/112/1
f 264/111/1 263/110/1 266/87/1
f 267/85/26 268/113/26 269/114/26
f 267/85/26 269/114/26 270/115/26
f 271/108/3 272/107/3 273/109/3
f 272/107/3 271/108/3 274/86/3
f 275/110/1 276/112/1 277/111/1
f 275/110/1 277/111/1 278/87/1
f 279/115/26 280/114/26 281/85/26
f 282/113/26 281/85/26 280/114/26
usemtl MI_Copper065
f 283/116/1 284/117/1 285/118/1
f 285/118/1 284/117/1 286/119/1
f 287/120/4 288/121/4 289/122/4
f 287/120/4 289/122/4 290/123/4
f 291/124/62 292/125/62 293/126/62
f 292/125/62 291/124/62 294/127/62
f 295/128/26 296/129/26 297/130/26
f 296/129/26 295/128/26 298/131/26
f 299/132/3 300/133/3 301/134/3
f 300/133/3 299/132/3 302/135/3
f 303/136/63 304/137/63 305/138/63
f 304/137/63 303/136/63 306/139/63
f 307/116/1 308/119/1 309/117/1
f 308/119/1 307/116/1 310/118/1
f 311/122/4 312/120/4 313/123/4
f 312/120/4 311/122/4 314/121/4
f 315/124/63 316/125/63 317/127/63
f 316/125/63 315/124/63 318/126/63
f 319/130/26 320/131/26 321/128/26
f 320/131/26 319/130/26 322/129/26
f 323/133/3 324/132/3 325/134/3
f 324/132/3 323/133/3 326/135/3
f 327/136/62 328/137/62 329/139/62
f 328/137/62 327/136/62 330/138/62
