# Blender 5.1.1
# www.blender.org
mtllib SmallWall.mtl
o SM_NewYorkE01BuildingIND003Af.001
v -161.729706 4.075060 -198.846207
v -161.729706 4.075068 -185.597809
v -161.979858 4.075007 -185.847778
v -161.729706 12.400753 -198.876785
v -161.729706 4.075060 -198.876785
v -161.970825 12.400745 -199.118103
v -161.970825 4.075060 -199.118103
v -161.979858 12.298031 -199.096359
v -161.979858 4.075060 -199.096359
v -161.979858 12.297993 -185.847778
v -161.979858 4.075007 -185.847778
v -161.729706 12.400755 -198.846207
v -161.729706 4.075068 -185.597809
v -161.729706 4.075060 -198.846207
v -161.729706 12.400795 -185.597809
v -161.979858 12.908339 -185.847778
v -161.729706 12.400795 -185.597809
v -161.729706 12.908426 -185.597809
v -161.979858 12.400721 -185.847778
v -161.979858 12.908335 -199.096359
v -161.970825 12.400745 -199.118103
v -161.979858 12.400745 -199.096359
v -161.970825 12.908337 -199.118103
v -161.729706 12.908352 -198.876785
v -161.729706 12.400755 -198.846207
v -161.729706 12.400753 -198.876785
v -161.729706 12.908352 -198.846207
v -161.729706 12.400753 -198.876785
v -161.729706 4.075060 -198.846207
v -161.729706 4.075060 -198.876785
v -161.729706 12.400755 -198.846207
v -161.729706 12.400795 -185.597809
v -161.729706 12.908352 -198.846207
v -161.729706 12.908426 -185.597809
v -161.729706 12.400755 -198.846207
v -161.729706 12.908352 -198.876785
v -161.729706 12.400753 -198.876785
v -161.970825 12.908337 -199.118103
v -161.970825 12.400745 -199.118103
v -161.729706 12.400795 -185.597809
v -161.979858 12.400721 -185.847778
v -161.979858 12.297993 -185.847778
v -161.729706 4.075068 -185.597809
v -161.979858 4.075007 -185.847778
v -161.970825 4.075060 -199.118103
v -161.979858 4.075060 -199.096359
v -161.979858 12.298031 -199.096359
v -161.970825 12.400745 -199.118103
v -161.979858 12.400745 -199.096359
v -161.729706 12.908352 -198.846207
v -161.979858 12.908339 -185.847778
v -161.729706 12.908426 -185.597809
v -161.979858 12.908335 -199.096359
v -161.729706 12.908352 -198.876785
v -161.970825 12.908337 -199.118103
v -161.729706 4.075060 -198.876785
v -161.979858 4.075060 -199.096359
v -161.970825 4.075060 -199.118103
v -161.729706 4.075060 -198.846207
v -161.979858 4.075007 -185.847778
v -162.096588 4.127464 -185.965485
v -162.105270 4.126050 -185.974167
v -162.128845 4.101961 -185.997742
v -162.094559 4.138178 -185.963455
v -162.095215 4.136772 -185.964111
v -162.096588 4.127464 -185.965485
v -162.096588 4.127464 -185.965485
v -162.103714 4.126637 -185.972610
v -162.105270 4.126050 -185.974167
v -162.027420 4.101961 -185.896317
v -162.027069 4.174971 -185.895966
v -162.058655 4.171614 -185.927551
v -162.041367 4.406498 -199.188599
v -161.938690 4.406498 -199.085922
v -162.047470 4.334375 -199.194702
v -162.105270 4.126049 -199.252502
v -162.103729 4.126636 -199.250946
v -162.096588 4.127463 -199.243820
v -162.096588 4.127463 -199.243820
v -162.095306 4.136771 -199.242538
v -162.094559 4.138177 -199.241791
v -162.058655 4.171613 -199.205887
v -162.027084 4.174971 -199.174316
v -162.027420 4.101960 -199.174652
v -162.094559 4.138177 -199.241791
v -162.061646 4.170147 -199.208878
v -162.096588 4.127463 -199.243820
v -162.027420 4.101960 -199.174652
v -162.128845 4.101961 -185.997742
v -162.128845 4.101960 -199.276077
v -162.027420 4.101961 -185.896317
v -162.027084 4.174971 -199.174316
v -162.027420 4.101961 -185.896317
v -162.027420 4.101960 -199.174652
v -162.027069 4.174971 -185.895966
v -162.058411 4.339968 -185.927307
v -162.048477 4.336333 -199.195709
v -162.048065 4.336181 -199.195297
v -162.048065 4.336182 -185.916962
v -162.060669 4.393619 -199.207901
v -162.060669 4.393621 -185.929565
v -162.041367 4.406498 -199.188599
v -162.041367 4.406507 -185.910263
v -162.041367 4.406498 -199.188599
v -162.041367 4.406507 -185.910263
v -161.938690 4.406498 -199.085922
v -161.938690 4.406508 -185.807571
v -162.048477 4.336333 -199.195709
v -162.058411 4.339968 -185.927307
v -162.059494 4.340361 -185.928375
v -162.059494 4.340360 -199.206726
v -162.048065 4.336182 -185.916962
v -162.048065 4.336181 -199.195297
v -162.047470 4.334375 -199.194702
v -162.047470 4.334377 -185.916367
v -162.060669 4.343973 -185.929565
v -162.060669 4.343971 -199.207901
v -162.059494 4.340360 -199.206726
v -162.059494 4.340361 -185.928375
v -162.060669 4.393621 -185.929565
v -162.060669 4.343971 -199.207901
v -162.060669 4.343973 -185.929565
v -162.060669 4.393619 -199.207901
v -162.047470 4.334377 -185.916367
v -162.041367 4.406507 -185.910263
v -162.048065 4.336182 -185.916962
v -162.060669 4.393621 -185.929565
v -161.938690 4.406498 -199.085922
v -161.938690 4.101959 -199.085922
v -162.047470 4.334375 -199.194702
v -162.047470 4.101959 -199.194702
v -162.096588 4.127464 -185.965485
v -162.096588 4.127463 -199.243820
v -162.103714 4.126637 -185.972610
v -162.103729 4.126636 -199.250946
v -162.105270 4.126050 -185.974167
v -162.105270 4.126049 -199.252502
v -162.129608 4.107523 -185.998505
v -162.129608 4.107522 -199.276840
v -162.130127 4.106571 -185.999023
v -162.130127 4.106570 -199.277359
v -162.130127 4.103527 -199.277359
v -162.130127 4.103528 -185.999023
v -162.128845 4.101960 -199.276077
v -162.128845 4.101961 -185.997742
v -162.105270 4.126050 -185.974167
v -162.129608 4.107523 -185.998505
v -162.128845 4.101961 -185.997742
v -162.130127 4.106571 -185.999023
v -162.130127 4.103528 -185.999023
v -161.938690 4.406508 -185.807571
v -162.041367 4.406507 -185.910263
v -162.047470 4.334377 -185.916367
v -161.938690 4.101961 -185.807571
v -162.047470 4.101961 -185.916367
v -162.041367 4.406498 -199.188599
v -162.047470 4.334375 -199.194702
v -162.048065 4.336181 -199.195297
v -162.060669 4.393619 -199.207901
v -162.048477 4.336333 -199.195709
v -162.060669 4.343971 -199.207901
v -162.059494 4.340360 -199.206726
v -162.128845 4.101960 -199.276077
v -162.105270 4.126049 -199.252502
v -162.096588 4.127463 -199.243820
v -162.027420 4.101960 -199.174652
v -162.061646 4.170147 -199.208878
v -162.058655 4.171613 -199.205887
v -162.130127 4.103527 -199.277359
v -162.130127 4.106570 -199.277359
v -162.129608 4.107522 -199.276840
v -162.128845 4.101960 -199.276077
v -162.105270 4.126049 -199.252502
v -162.096588 4.127464 -185.965485
v -162.095306 4.136771 -199.242538
v -162.096588 4.127463 -199.243820
v -162.095215 4.136772 -185.964111
v -162.094559 4.138177 -199.241791
v -162.094559 4.138178 -185.963455
v -162.061646 4.170147 -199.208878
v -162.061646 4.170148 -185.930542
v -162.058655 4.171613 -199.205887
v -162.058655 4.171614 -185.927551
v -162.027084 4.174971 -199.174316
v -162.027069 4.174971 -185.895966
v -162.060669 4.393621 -185.929565
v -162.060669 4.343973 -185.929565
v -162.048065 4.336182 -185.916962
v -162.058411 4.339968 -185.927307
v -162.059494 4.340361 -185.928375
v -162.128845 4.101961 -185.997742
v -162.027420 4.101961 -185.896317
v -162.096588 4.127464 -185.965485
v -162.061646 4.170148 -185.930542
v -162.094559 4.138178 -185.963455
v -162.058655 4.171614 -185.927551
v -161.938690 4.406498 -199.085922
v -161.938690 4.406508 -185.807571
v -161.938690 4.101961 -185.807571
v -161.938690 4.101959 -199.085922
v -161.938690 4.101959 -199.085922
v -161.938690 4.101961 -185.807571
v -162.047470 4.101961 -185.916367
v -162.047470 4.101959 -199.194702
v -162.047470 4.334377 -185.916367
v -162.047470 4.101959 -199.194702
v -162.047470 4.101961 -185.916367
v -162.047470 4.334375 -199.194702
v -161.979858 12.400745 -199.096359
v -161.979858 12.908339 -185.847778
v -161.979858 12.908335 -199.096359
v -161.979858 12.400721 -185.847778
v -161.979858 12.400721 -185.847778
v -161.979858 12.400745 -199.096359
v -161.979858 12.298031 -199.096359
v -161.979858 12.297993 -185.847778
vn 0.0040 -1.0000 0.0040
vn 0.7110 0.0039 -0.7032
vn -1.0000 0.0040 0.0040
vn 1.0000 0.0039 0.0039
vn -0.7032 0.0039 0.7110
vn -1.0000 0.0039 0.0039
vn -0.9232 0.0039 -0.3843
vn -1.0000 0.0040 0.0039
vn 0.0039 1.0000 0.0039
vn 0.0039 -1.0000 0.0039
vn -0.0119 -0.9999 0.0040
vn 1.0000 -0.0039 0.0039
vn -0.3446 -0.9387 0.0040
vn -0.3446 -0.9387 0.0039
vn -0.5353 -0.8446 0.0040
vn -0.5353 -0.8447 0.0040
vn -0.9548 0.2971 0.0040
vn -0.0984 0.9951 0.0039
vn -0.0983 0.9951 0.0039
vn -0.6280 -0.7782 0.0040
vn -1.0000 0.0039 0.0040
vn -0.9998 -0.0198 0.0040
vn -0.6281 -0.7782 0.0040
vn -0.9998 -0.0197 0.0039
vn -0.9548 0.2971 0.0039
vn -0.1139 0.9935 0.0039
vn -0.1536 0.9881 0.0039
vn -0.5879 0.8089 0.0040
vn -0.5879 0.8089 0.0039
vn -0.6107 0.7919 0.0039
vn -0.9904 0.1381 0.0039
vn -0.9640 -0.2658 0.0039
vn -0.9640 -0.2658 0.0040
vn -0.0118 -0.9999 0.0039
vn -0.7032 0.0040 0.7110
vn 0.7110 0.0040 -0.7032
vn -0.9893 0.1458 0.0039
vn -0.9812 0.1931 0.0039
vn -0.6992 0.7149 0.0040
vn -0.6992 0.7149 0.0039
vn -0.6791 0.7341 0.0039
vn -0.1371 0.9906 0.0039
vn -0.1370 0.9906 0.0039
vt 5.503906 0.115723
vt 4.078125 0.114746
vt 4.082031 0.114746
vt 5.503906 1.006329
vt 5.503906 0.118164
vt 5.503906 0.998007
vt 4.078125 0.997673
vt 5.503906 1.008972
vt 4.078125 1.008759
vt 4.078125 1.063354
vt 4.082031 1.008850
vt 4.082031 1.063354
vt 4.078125 1.008850
vt 5.503906 1.063354
vt 5.503906 1.008881
vt 5.503906 1.060455
vt 5.503906 1.008072
vt 5.503906 1.007137
vt 4.078125 0.997818
vt 5.503906 0.996136
vt -0.804199 0.245605
vt -0.803223 0.232422
vt -0.801758 0.206055
vt -0.804199 0.258789
vt -0.804199 0.251953
vt -0.803711 0.238770
vt -1.831055 0.185547
vt -1.688477 0.169922
vt -0.806641 0.271973
vt 0.343994 -5.632812
vt 0.706543 8.406250
vt -4.441406 0.631104
vt 0.196899 0.232422
vt 0.196655 0.238770
vt 0.196167 0.245605
vt 0.196167 0.251953
vt 0.196167 0.258789
vt 0.193604 0.271973
vt 0.728516 0.169922
vt 0.815918 0.185547
vt 0.193726 0.265137
vt -1.810547 0.206055
vt 0.836426 0.206055
vt -1.688477 0.185547
vt 0.729004 0.185547
vt 0.456299 22.578125
vt 0.445557 8.046875
vt 0.445068 8.050781
vt 0.445068 22.593750
vt 0.358154 -5.613281
vt 0.358154 -20.140625
vt 0.343994 -20.156250
vt 0.594238 8.296875
vt 0.594238 22.843750
vt 0.706543 22.953125
vt 0.457520 22.578125
vt 0.457520 8.039062
vt 0.426758 22.593750
vt 0.426758 8.050781
vt 0.424805 8.054688
vt 0.424805 22.593750
vt 0.412354 -20.140625
vt 0.412354 -5.613281
vt 0.416504 -5.613281
vt 0.416504 -20.156250
vt 1.171875 0.256836
vt -0.244263 0.347656
vt -0.801758 0.225586
vt 0.198730 0.225586
vt -0.801758 0.219238
vt 0.198730 0.219238
vt 0.198730 0.212402
vt -0.801758 0.212402
vt 0.198608 0.206055
vt 2.914062 0.294922
vt -2.003906 0.333496
vt -11.398438 0.746582
vt -0.804199 0.258301
vt -0.806641 0.265137
vt 0.191284 0.278320
vt -0.809082 0.278320
vt 1.171875 0.294922
vt 2.914062 0.256836
vt -0.258545 0.333496
vt -1.989258 0.347656
vt -11.398438 0.631104
vt -4.441406 0.746582
vt 2.089844 0.453125
vt 4.750000 0.453613
vt 4.750000 0.433105
vt 2.089844 0.432617
s 1
usemtl MI_NewYorkE01Wall005A_01
f 1/1/1 2/2/1 3/3/1
f 4/4/2 5/5/2 6/4/2
f 6/4/2 5/5/2 7/5/2
f 8/6/3 9/1/3 10/7/3
f 10/7/3 9/1/3 11/2/3
f 12/8/4 13/2/4 14/1/4
f 13/2/4 12/8/4 15/9/4
f 16/10/5 17/11/5 18/12/5
f 17/11/5 16/10/5 19/13/5
f 20/14/6 21/4/7 22/15/8
f 21/4/7 20/14/6 23/16/7
f 24/16/4 25/15/4 26/4/4
f 25/15/4 24/16/4 27/14/4
f 28/17/4 29/1/4 30/5/4
f 29/1/4 28/17/4 31/18/4
f 32/13/4 33/14/4 34/10/4
f 33/14/4 32/13/4 35/15/4
f 36/16/2 37/4/2 38/16/2
f 38/16/2 37/4/2 39/4/2
f 40/13/5 41/13/5 42/19/5
f 43/3/5 40/13/5 42/19/5
f 42/19/5 44/3/5 43/3/5
f 45/5/7 46/1/8 47/20/8
f 47/20/8 48/17/7 45/5/7
f 47/20/8 49/18/6 48/17/7
f 50/14/9 51/10/9 52/10/9
f 51/10/9 50/14/9 53/14/9
f 54/16/9 53/14/9 50/14/9
f 53/14/9 54/16/9 55/16/9
f 56/5/1 57/1/10 58/5/1
f 57/1/10 56/5/1 59/1/1
f 60/3/1 57/1/10 59/1/1
usemtl MI_MasterBlendCopper006
f 61/21/5 62/22/5 63/23/5
f 64/24/5 65/25/5 66/21/5
f 67/21/5 68/26/5 69/22/5
f 70/27/5 71/28/5 72/29/5
f 73/30/2 74/31/2 75/32/2
f 76/33/2 77/34/2 78/35/2
f 79/35/2 80/36/2 81/37/2
f 82/38/2 83/39/2 84/40/2
f 85/37/2 86/41/2 87/35/2
f 88/40/1 89/42/11 90/43/11
f 89/42/11 88/40/1 91/27/1
f 92/39/12 93/44/12 94/45/12
f 93/44/12 92/39/12 95/28/12
f 96/46/13 97/47/14 98/48/15
f 98/48/15 99/49/16 96/46/13
f 100/50/17 101/51/17 102/30/18
f 103/52/19 102/30/18 101/51/17
f 104/53/19 105/54/19 106/31/9
f 106/31/9 105/54/19 107/55/9
f 108/47/13 109/46/13 110/56/20
f 110/56/20 111/57/20 108/47/13
f 112/58/16 113/59/16 114/60/6
f 112/58/16 114/60/6 115/61/21
f 116/62/22 117/63/22 118/64/20
f 116/62/22 118/64/20 119/65/23
f 120/51/17 121/63/24 122/62/24
f 121/63/24 120/51/17 123/50/25
f 124/61/5 125/54/5 126/49/5
f 125/54/5 127/51/5 126/49/5
f 128/31/2 129/66/2 130/32/2
f 129/66/2 131/67/2 130/32/2
f 132/21/26 133/35/26 134/26/27
f 135/34/27 134/26/27 133/35/26
f 135/34/27 136/22/28 134/26/27
f 136/22/28 135/34/27 137/33/29
f 137/33/29 138/68/30 136/22/28
f 139/69/30 138/68/30 137/33/29
f 138/68/30 139/69/30 140/70/31
f 140/70/31 139/69/30 141/71/31
f 142/72/32 140/70/31 141/71/31
f 140/70/31 142/72/32 143/73/33
f 144/74/34 143/73/33 142/72/32
f 143/73/33 144/74/34 145/23/34
f 146/22/5 147/68/5 148/23/35
f 147/68/5 149/70/5 148/23/35
f 149/70/5 150/73/5 148/23/35
f 151/75/5 152/54/5 153/61/5
f 154/76/5 151/75/5 153/61/5
f 153/61/5 155/77/5 154/76/5
f 156/30/2 157/32/2 158/59/2
f 159/50/2 156/30/2 158/59/2
f 158/59/2 160/47/2 159/50/2
f 161/63/2 159/50/2 160/47/2
f 160/47/2 162/57/2 161/63/2
f 163/74/36 164/33/2 165/35/2
f 166/40/2 163/74/36 165/35/2
f 165/35/2 167/41/2 166/40/2
f 167/41/2 168/38/2 166/40/2
f 169/72/2 170/71/2 171/69/2
f 172/74/2 169/72/2 171/69/2
f 171/69/2 173/33/2 172/74/2
f 174/21/37 175/36/38 176/35/37
f 175/36/38 174/21/37 177/25/38
f 177/25/38 178/37/39 175/36/38
f 179/78/40 178/37/39 177/25/38
f 178/37/39 179/78/40 180/41/41
f 180/41/41 179/78/40 181/79/41
f 180/41/41 181/79/41 182/38/42
f 182/38/42 181/79/41 183/29/43
f 182/38/42 183/29/43 184/80/19
f 184/80/19 183/29/43 185/81/19
f 186/51/5 187/62/5 188/49/5
f 187/62/5 189/46/5 188/49/5
f 187/62/5 190/65/5 189/46/5
f 191/23/5 192/27/5 193/21/5
f 193/21/5 192/27/5 194/79/5
f 194/79/5 195/24/5 193/21/5
f 196/29/5 194/79/5 192/27/5
usemtl MI_MasterBlendMetal026
f 197/82/4 198/75/4 199/83/4
f 197/82/4 199/83/4 200/66/4
f 201/84/1 202/76/1 203/85/1
f 203/85/1 204/67/1 201/84/1
f 205/86/3 206/87/3 207/77/3
f 206/87/3 205/86/3 208/32/3
usemtl MI_Light001
f 209/15/3 210/10/3 211/14/3
f 210/10/3 209/15/3 212/13/3
usemtl MI_NewYorkE01Building001A_07
f 213/88/3 214/89/3 215/90/3
f 213/88/3 215/90/3 216/91/3
